<?xml version="1.0" standalone="no"?>
<!DOCTYPE svg PUBLIC "-//W3C//DTD SVG 20010904//EN"
 "http://www.w3.org/TR/2001/REC-SVG-20010904/DTD/svg10.dtd">
<svg version="1.0" xmlns="http://www.w3.org/2000/svg"
 width="512.000000pt" height="512.000000pt" viewBox="0 0 512.000000 512.000000"
 preserveAspectRatio="xMidYMid meet">

<g transform="translate(0.000000,512.000000) scale(0.100000,-0.100000)"
fill="#000000" stroke="none">
<path d="M2170 5113 c-161 -27 -334 -145 -418 -285 -91 -153 -111 -343 -53
-510 74 -213 274 -372 499 -398 302 -34 576 157 652 456 96 374 -202 750 -590
742 -36 0 -76 -3 -90 -5z"/>
<path d="M3830 4677 c-13 -7 -306 -213 -650 -459 l-625 -448 -436 0 c-490 0
-492 0 -573 -72 -47 -40 -519 -689 -541 -743 -7 -16 -14 -43 -16 -60 -7 -95
-6 -99 206 -476 113 -200 221 -381 241 -402 41 -44 110 -77 160 -77 l34 0 0
-843 c0 -931 -2 -904 63 -988 17 -23 57 -56 87 -73 50 -28 63 -31 140 -31 68
0 93 5 126 22 66 35 101 70 131 131 l28 57 3 758 3 757 59 0 60 0 0 -757 0
-758 24 -50 c81 -175 309 -220 454 -89 36 32 57 61 71 100 21 54 21 65 21
1667 l1 1612 595 425 c408 291 602 435 616 458 26 42 28 115 3 162 -34 68
-109 159 -141 175 -38 18 -108 19 -144 2z m-2202 -2047 l-3 -170 -94 153
c-124 202 -125 210 -41 332 34 50 78 114 98 144 l37 54 3 -171 c1 -95 1 -248
0 -342z"/>
</g>
</svg>
